<svg xmlns="http://www.w3.org/2000/svg" width="960" height="540" viewBox="0 0 960 540" role="img" aria-label="He thong quang cao tu dong">
  <defs>
    <linearGradient id="bg" x1="0" x2="1" y1="0" y2="1">
      <stop offset="0" stop-color="#2a1712"/>
      <stop offset="1" stop-color="#0f1117"/>
    </linearGradient>
    <linearGradient id="orange" x1="0" x2="1">
      <stop offset="0" stop-color="#f66628"/>
      <stop offset="1" stop-color="#ff8d4d"/>
    </linearGradient>
    <filter id="glow" x="-30%" y="-30%" width="160%" height="160%">
      <feGaussianBlur stdDeviation="12" result="blur"/>
      <feColorMatrix in="blur" type="matrix" values="1 0 0 0 0.96 0 1 0 0 0.40 0 0 1 0 0.15 0 0 0 0.65 0"/>
      <feBlend in="SourceGraphic"/>
    </filter>
  </defs>
  <rect width="960" height="540" rx="38" fill="url(#bg)"/>
  <path d="M0 360 C190 250 310 390 500 268 S750 170 960 255 V540 H0Z" fill="#f66628" opacity=".08"/>
  <g opacity=".16" stroke="#fff" stroke-width="1">
    <path d="M0 92H960M0 184H960M0 276H960M0 368H960M0 460H960"/>
    <path d="M120 0V540M240 0V540M360 0V540M480 0V540M600 0V540M720 0V540M840 0V540"/>
  </g>
  <g transform="translate(86 76)">
    <rect width="228" height="64" rx="32" fill="url(#orange)"/>
    <text x="34" y="41" fill="#170905" font-family="Arial, sans-serif" font-size="24" font-weight="900">AUTO ADS</text>
  </g>
  <g stroke="#ff8d4d" stroke-width="8" fill="none" stroke-linecap="round" stroke-linejoin="round" filter="url(#glow)">
    <path d="M210 330 H360"/>
    <path d="M600 330 H750"/>
    <path d="M480 210 V450"/>
    <path d="M360 330 C410 330 430 210 480 210 C530 210 550 330 600 330"/>
    <path d="M360 330 C410 330 430 450 480 450 C530 450 550 330 600 330"/>
  </g>
  <g fill="#181a20" stroke="#f66628" stroke-width="4">
    <rect x="120" y="278" width="170" height="104" rx="22"/>
    <rect x="395" y="154" width="170" height="104" rx="22"/>
    <rect x="395" y="402" width="170" height="104" rx="22"/>
    <rect x="670" y="278" width="170" height="104" rx="22"/>
  </g>
  <g fill="#f3f5f7" font-family="Arial, sans-serif" font-size="22" font-weight="900">
    <text x="164" y="322">Traffic</text>
    <text x="438" y="198">Inbox</text>
    <text x="438" y="446">CRM</text>
    <text x="717" y="322">Sales</text>
  </g>
  <g fill="#ff8d4d">
    <circle cx="205" cy="352" r="8"/>
    <circle cx="480" cy="228" r="8"/>
    <circle cx="480" cy="476" r="8"/>
    <circle cx="755" cy="352" r="8"/>
  </g>
</svg>
