<svg xmlns="http://www.w3.org/2000/svg" width="960" height="540" viewBox="0 0 960 540" role="img" aria-label="Ket noi content va digital">
  <defs>
    <linearGradient id="bg" x1="0" x2="1" y1="0" y2="1">
      <stop offset="0" stop-color="#2b1710"/>
      <stop offset=".7" stop-color="#12151d"/>
      <stop offset="1" stop-color="#0e1016"/>
    </linearGradient>
    <linearGradient id="orange" x1="0" x2="1">
      <stop offset="0" stop-color="#f66628"/>
      <stop offset="1" stop-color="#ff8d4d"/>
    </linearGradient>
  </defs>
  <rect width="960" height="540" rx="38" fill="url(#bg)"/>
  <g opacity=".14" stroke="#fff" stroke-width="1">
    <path d="M0 108H960M0 216H960M0 324H960M0 432H960"/>
    <path d="M160 0V540M320 0V540M480 0V540M640 0V540M800 0V540"/>
  </g>
  <text x="86" y="96" fill="#ff8d4d" font-family="Arial, sans-serif" font-size="30" font-weight="900">CONTENT TO DIGITAL SYSTEM</text>
  <g fill="none" stroke="#f66628" stroke-width="8" stroke-linecap="round" stroke-linejoin="round" opacity=".85">
    <path d="M230 270 H374"/>
    <path d="M586 270 H730"/>
    <path d="M480 180 V360"/>
    <path d="M374 270 C420 270 426 180 480 180 C534 180 540 270 586 270"/>
    <path d="M374 270 C420 270 426 360 480 360 C534 360 540 270 586 270"/>
  </g>
  <g font-family="Arial, sans-serif" font-weight="900">
    <g transform="translate(98 198)">
      <rect width="190" height="144" rx="24" fill="#181a20" stroke="#343945" stroke-width="3"/>
      <text x="34" y="66" fill="#f3f5f7" font-size="26">Content</text>
      <text x="34" y="102" fill="#949ba8" font-size="18">Hook + Angle</text>
    </g>
    <g transform="translate(385 108)">
      <rect width="190" height="144" rx="24" fill="#2a1712" stroke="#f66628" stroke-width="3"/>
      <text x="46" y="66" fill="#ff8d4d" font-size="26">Offer</text>
      <text x="36" y="102" fill="#f3f5f7" font-size="18">Reason to buy</text>
    </g>
    <g transform="translate(385 288)">
      <rect width="190" height="144" rx="24" fill="#181a20" stroke="#343945" stroke-width="3"/>
      <text x="34" y="66" fill="#f3f5f7" font-size="26">Landing</text>
      <text x="34" y="102" fill="#949ba8" font-size="18">Proof + CTA</text>
    </g>
    <g transform="translate(672 198)">
      <rect width="190" height="144" rx="24" fill="#181a20" stroke="#343945" stroke-width="3"/>
      <text x="48" y="66" fill="#f3f5f7" font-size="26">Digital</text>
      <text x="34" y="102" fill="#949ba8" font-size="18">Ads + CRM</text>
    </g>
  </g>
  <circle cx="480" cy="270" r="46" fill="url(#orange)"/>
  <path d="M460 270 L476 286 L506 252" stroke="#170905" stroke-width="10" fill="none" stroke-linecap="round" stroke-linejoin="round"/>
</svg>
