<svg xmlns="http://www.w3.org/2000/svg" width="960" height="540" viewBox="0 0 960 540" role="img" aria-label="Tu fix loi Facebook Ads">
  <defs>
    <linearGradient id="bg" x1="0" x2="1" y1="0" y2="1">
      <stop offset="0" stop-color="#261611"/>
      <stop offset=".58" stop-color="#11141b"/>
      <stop offset="1" stop-color="#0b0d12"/>
    </linearGradient>
    <linearGradient id="orange" x1="0" x2="1">
      <stop offset="0" stop-color="#f66628"/>
      <stop offset="1" stop-color="#ff8d4d"/>
    </linearGradient>
  </defs>
  <rect width="960" height="540" rx="38" fill="url(#bg)"/>
  <g opacity=".13" stroke="#fff" stroke-width="1">
    <path d="M0 90H960M0 180H960M0 270H960M0 360H960M0 450H960"/>
    <path d="M96 0V540M192 0V540M288 0V540M384 0V540M480 0V540M576 0V540M672 0V540M768 0V540M864 0V540"/>
  </g>
  <rect x="96" y="82" width="768" height="376" rx="28" fill="#181a20" stroke="#343945" stroke-width="3"/>
  <rect x="96" y="82" width="768" height="72" rx="28" fill="#23272f"/>
  <circle cx="140" cy="118" r="10" fill="#f66628"/>
  <circle cx="172" cy="118" r="10" fill="#ff8d4d"/>
  <circle cx="204" cy="118" r="10" fill="#6b7280"/>
  <text x="250" y="127" fill="#f3f5f7" font-family="Arial, sans-serif" font-size="24" font-weight="900">ADS ACCOUNT HEALTH CHECK</text>
  <g transform="translate(138 190)">
    <rect width="250" height="190" rx="22" fill="#10131a" stroke="#f66628" stroke-width="3"/>
    <path d="M68 124 L112 80 L147 112 L190 52" stroke="#ff8d4d" stroke-width="10" fill="none" stroke-linecap="round" stroke-linejoin="round"/>
    <circle cx="68" cy="124" r="10" fill="#f66628"/>
    <circle cx="112" cy="80" r="10" fill="#f66628"/>
    <circle cx="147" cy="112" r="10" fill="#f66628"/>
    <circle cx="190" cy="52" r="10" fill="#f66628"/>
    <text x="48" y="162" fill="#c7ccd5" font-family="Arial, sans-serif" font-size="18" font-weight="700">Signal map</text>
  </g>
  <g transform="translate(440 190)" font-family="Arial, sans-serif" font-weight="800">
    <rect width="382" height="52" rx="14" fill="#2a1712" stroke="#f66628"/>
    <text x="22" y="34" fill="#ff8d4d" font-size="18">Page trust: needs fix</text>
    <rect y="70" width="382" height="52" rx="14" fill="#141820" stroke="#343945"/>
    <text x="22" y="104" fill="#f3f5f7" font-size="18">Tracking: verified</text>
    <rect y="140" width="382" height="52" rx="14" fill="#141820" stroke="#343945"/>
    <text x="22" y="174" fill="#f3f5f7" font-size="18">Policy risk: monitor</text>
  </g>
</svg>
